<svg width="368" height="94" viewBox="0 0 368 94" fill="none" xmlns="http://www.w3.org/2000/svg">
    <path d="M54.1139 15.648V59.616C54.1139 68.768 52.2259 75.232 48.4499 79.008C44.6739 82.72 39.2019 84.576 32.0339 84.576C27.4259 84.576 23.5539 83.968 20.4179 82.752C17.3459 81.536 14.4979 79.616 11.8739 76.992L19.3619 68.832C20.4499 69.92 22.0819 70.848 24.2579 71.616C26.4979 72.32 29.0259 72.672 31.8419 72.672C34.7219 72.672 36.9299 72 38.4659 70.656C40.0019 69.248 40.7699 66.656 40.7699 62.88V15.648H54.1139ZM96.9052 59.232V54.24C96.9052 49.504 96.2012 45.888 94.7932 43.392C93.4492 40.896 90.6012 39.648 86.2492 39.648C79.2092 39.648 75.6892 44.384 75.6892 53.856V58.848C75.6892 69.024 79.2092 74.112 86.2492 74.112C90.7932 74.112 93.7692 72.416 95.1772 69.024C96.3292 66.336 96.9052 63.072 96.9052 59.232ZM109.385 56.352C109.385 68.192 107.145 76.128 102.665 80.16C98.8892 83.616 93.4172 85.344 86.2492 85.344C77.0972 85.344 70.9212 82.656 67.7212 77.28C64.7132 72.352 63.2092 65.376 63.2092 56.352C63.2092 47.904 64.7132 41.28 67.7212 36.48C71.0492 31.104 77.0972 28.416 85.8652 28.416C94.6972 28.416 100.809 30.784 104.201 35.52C107.657 40.192 109.385 47.136 109.385 56.352ZM142.79 84.096L131.942 84C127.142 84 123.494 82.592 120.998 79.776C118.566 76.96 117.35 73.6 117.35 69.696V11.808H129.83V36L144.71 29.088C150.406 29.088 154.598 30.624 157.286 33.696C159.654 36.448 161.126 40.896 161.702 47.04C161.894 49.6 161.99 52.768 161.99 56.544C161.99 74.912 155.59 84.096 142.79 84.096ZM132.998 73.344H139.142C146.054 73.344 149.51 67.744 149.51 56.544C149.51 50.848 148.966 46.88 147.878 44.64C146.854 42.4 144.582 41.28 141.062 41.28L129.83 47.328V68.928C129.83 71.488 130.886 72.96 132.998 73.344ZM225.597 49.536L225.693 56.928C225.437 61.6 224.861 65.536 223.965 68.736C223.069 71.936 221.309 74.848 218.685 77.472C214.333 81.824 207.997 84 199.677 84C189.885 84 183.165 82.72 179.517 80.16C175.869 77.536 174.045 72.832 174.045 66.048V15.648H200.637C208.317 15.648 214.333 17.824 218.685 22.176C222.205 25.696 224.285 29.984 224.925 35.04C225.373 38.624 225.597 43.456 225.597 49.536ZM209.373 67.872C210.589 66.4 211.357 64.384 211.677 61.824C212.061 59.2 212.253 55.136 212.253 49.632C212.253 44.128 212.061 40.16 211.677 37.728C211.357 35.232 210.589 33.248 209.373 31.776C207.069 28.96 203.741 27.552 199.389 27.552H187.389V65.376C187.389 67.936 188.253 69.696 189.981 70.656C191.709 71.616 194.781 72.096 199.197 72.096C203.677 72.096 207.069 70.688 209.373 67.872ZM242.702 8.256C245.71 8.256 247.662 8.736 248.558 9.696C249.454 10.592 249.902 12.544 249.902 15.552C249.902 18.496 249.422 20.448 248.462 21.408C247.566 22.304 245.614 22.752 242.606 22.752C239.662 22.752 237.71 22.272 236.75 21.312C235.854 20.352 235.406 18.4 235.406 15.456C235.406 12.512 235.854 10.592 236.75 9.696C237.71 8.736 239.694 8.256 242.702 8.256ZM248.846 84H236.366V31.2H248.846V84ZM305.332 84H292.852V48.96C292.852 45.824 292.212 43.68 290.932 42.528C289.652 41.376 287.86 40.8 285.556 40.8L274.324 45.504V84H261.844V29.184H271.156L274.036 35.712L289.396 28.608C293.684 28.608 297.396 30.208 300.532 33.408C303.732 36.544 305.332 41.152 305.332 47.232V84ZM347.499 59.232V54.24C347.499 49.504 346.795 45.888 345.387 43.392C344.043 40.896 341.195 39.648 336.843 39.648C329.803 39.648 326.283 44.384 326.283 53.856V58.848C326.283 69.024 329.803 74.112 336.843 74.112C341.387 74.112 344.363 72.416 345.771 69.024C346.923 66.336 347.499 63.072 347.499 59.232ZM359.979 56.352C359.979 68.192 357.739 76.128 353.259 80.16C349.483 83.616 344.011 85.344 336.843 85.344C327.691 85.344 321.515 82.656 318.315 77.28C315.307 72.352 313.803 65.376 313.803 56.352C313.803 47.904 315.307 41.28 318.315 36.48C321.643 31.104 327.691 28.416 336.459 28.416C345.291 28.416 351.403 30.784 354.795 35.52C358.251 40.192 359.979 47.136 359.979 56.352Z" fill="#23C7AC"/>
    <path d="M54.1139 15.648H62.1139V7.648H54.1139V15.648ZM48.4499 79.008L54.0582 84.713L54.0826 84.689L54.1068 84.6649L48.4499 79.008ZM20.4179 82.752L17.4735 90.1905L17.4996 90.2008L17.5257 90.2109L20.4179 82.752ZM11.8739 76.992L5.97957 71.5831L0.79793 77.2297L6.21707 82.6489L11.8739 76.992ZM19.3619 68.832L25.0188 63.1751L19.1138 57.2701L13.4676 63.4231L19.3619 68.832ZM24.2579 71.616L21.5954 79.1599L21.7266 79.2062L21.8593 79.2479L24.2579 71.616ZM38.4659 70.656L43.734 76.6766L43.8036 76.6157L43.8717 76.5532L38.4659 70.656ZM40.7699 15.648V7.648H32.7699V15.648H40.7699ZM46.1139 15.648V59.616H62.1139V15.648H46.1139ZM46.1139 59.616C46.1139 68.0608 44.3005 71.8437 42.7931 73.3511L54.1068 84.6649C60.1514 78.6203 62.1139 69.4752 62.1139 59.616H46.1139ZM42.8416 73.303C41.0284 75.0855 37.8644 76.576 32.0339 76.576V92.576C40.5394 92.576 48.3194 90.3545 54.0582 84.713L42.8416 73.303ZM32.0339 76.576C28.0736 76.576 25.2515 76.0459 23.3101 75.2931L17.5257 90.2109C21.8564 91.8901 26.7782 92.576 32.0339 92.576V76.576ZM23.3623 75.3135C21.4249 74.5466 19.4771 73.2814 17.5308 71.3351L6.21707 82.6489C9.51876 85.9506 13.267 88.5254 17.4735 90.1905L23.3623 75.3135ZM17.7683 82.4009L25.2563 74.2409L13.4676 63.4231L5.97957 71.5831L17.7683 82.4009ZM13.7051 74.4889C15.9531 76.7369 18.8068 78.1757 21.5954 79.1599L26.9205 64.0721C26.1825 63.8116 25.6792 63.5732 25.3563 63.3897C25.0319 63.2052 24.9592 63.1155 25.0188 63.1751L13.7051 74.4889ZM21.8593 79.2479C25.0121 80.2388 28.3692 80.672 31.8419 80.672V64.672C29.6827 64.672 27.9837 64.4012 26.6565 63.984L21.8593 79.2479ZM31.8419 80.672C35.8692 80.672 40.2381 79.7355 43.734 76.6766L33.1979 64.6354C33.3878 64.4692 33.4904 64.4654 33.3286 64.5146C33.1396 64.5721 32.6793 64.672 31.8419 64.672V80.672ZM43.8717 76.5532C47.9877 72.7803 48.7699 67.2185 48.7699 62.88H32.7699C32.7699 64.2786 32.6215 65.0526 32.5235 65.3833C32.4317 65.6933 32.4849 65.2861 33.0601 64.7588L43.8717 76.5532ZM48.7699 62.88V15.648H32.7699V62.88H48.7699ZM40.7699 23.648H54.1139V7.648H40.7699V23.648ZM94.7932 43.392L87.7494 47.1848L87.7867 47.2541L87.8253 47.3226L94.7932 43.392ZM95.1772 69.024L87.824 65.8726L87.806 65.9147L87.7884 65.957L95.1772 69.024ZM102.665 80.16L97.3135 74.2136L97.2886 74.236L97.2639 74.2586L102.665 80.16ZM67.7212 77.28L74.5955 73.1881L74.5728 73.1499L74.5496 73.112L67.7212 77.28ZM67.7212 36.48L74.5001 40.7281L74.5117 40.7095L74.5233 40.6908L67.7212 36.48ZM104.201 35.52L97.6973 40.1782L97.733 40.2282L97.7696 40.2776L104.201 35.52ZM104.905 59.232V54.24H88.9052V59.232H104.905ZM104.905 54.24C104.905 48.9252 104.152 43.7001 101.761 39.4614L87.8253 47.3226C88.2503 48.0759 88.9052 50.0828 88.9052 54.24H104.905ZM101.837 39.5992C98.4382 33.2873 91.8265 31.648 86.2492 31.648V47.648C87.7315 47.648 88.3457 47.8708 88.4383 47.9114C88.4585 47.9202 88.3432 47.8717 88.1741 47.7207C87.9984 47.5637 87.8503 47.3723 87.7494 47.1848L101.837 39.5992ZM86.2492 31.648C80.7499 31.648 75.4788 33.624 71.9084 38.4278C68.6688 42.7866 67.6892 48.362 67.6892 53.856H83.6892C83.6892 49.878 84.4696 48.3494 84.7499 47.9722C84.831 47.8631 84.8562 47.8565 84.9029 47.8355C84.9954 47.794 85.3784 47.648 86.2492 47.648V31.648ZM67.6892 53.856V58.848H83.6892V53.856H67.6892ZM67.6892 58.848C67.6892 64.6111 68.6411 70.3535 71.7501 74.8475C75.2283 79.875 80.5231 82.112 86.2492 82.112V66.112C85.4528 66.112 85.1422 65.9705 85.1017 65.9509C85.0997 65.95 85.0455 65.943 84.9082 65.7445C84.4972 65.1505 83.6892 63.2609 83.6892 58.848H67.6892ZM86.2492 82.112C89.4714 82.112 92.8241 81.5151 95.8502 79.7905C98.9946 77.9986 101.234 75.2996 102.566 72.091L87.7884 65.957C87.7316 66.0938 87.7109 66.0926 87.7666 66.028C87.8267 65.9583 87.8949 65.9084 87.9281 65.8895C87.9783 65.8609 87.571 66.112 86.2492 66.112V82.112ZM102.53 72.1754C104.22 68.2324 104.905 63.8326 104.905 59.232H88.9052C88.9052 62.3114 88.4382 64.4396 87.824 65.8726L102.53 72.1754ZM101.385 56.352C101.385 67.8694 99.0646 72.6376 97.3135 74.2136L108.017 86.1064C115.226 79.6184 117.385 68.5146 117.385 56.352H101.385ZM97.2639 74.2586C95.4632 75.9067 92.2194 77.344 86.2492 77.344V93.344C94.6149 93.344 102.315 91.3253 108.066 86.0614L97.2639 74.2586ZM86.2492 77.344C78.4916 77.344 75.7488 75.1257 74.5955 73.1881L60.8468 81.3719C66.0935 90.1863 75.7027 93.344 86.2492 93.344V77.344ZM74.5496 73.112C72.6245 69.9581 71.2092 64.6631 71.2092 56.352H55.2092C55.2092 66.0889 56.8018 74.7459 60.8927 81.448L74.5496 73.112ZM71.2092 56.352C71.2092 48.7165 72.5907 43.775 74.5001 40.7281L60.9423 32.2319C56.8357 38.785 55.2092 47.0915 55.2092 56.352H71.2092ZM74.5233 40.6908C75.862 38.5284 78.6813 36.416 85.8652 36.416V20.416C75.513 20.416 66.2364 23.6796 60.919 32.2692L74.5233 40.6908ZM85.8652 36.416C93.5027 36.416 96.4646 38.4571 97.6973 40.1782L110.705 30.8618C105.154 23.1109 95.8916 20.416 85.8652 20.416V36.416ZM97.7696 40.2776C99.7657 42.9761 101.385 47.9177 101.385 56.352H117.385C117.385 46.3543 115.549 37.4079 110.633 30.7624L97.7696 40.2776ZM142.79 84.096L142.719 92.0957L142.755 92.096H142.79V84.096ZM131.942 84L132.013 76.0003L131.978 76H131.942V84ZM120.998 79.776L114.944 85.005L114.977 85.0439L115.011 85.0825L120.998 79.776ZM117.35 11.808V3.808H109.35V11.808H117.35ZM129.83 11.808H137.83V3.808H129.83V11.808ZM129.83 36H121.83V48.5371L133.2 43.2554L129.83 36ZM144.71 29.088V21.088H142.943L141.34 21.8326L144.71 29.088ZM157.286 33.696L163.35 28.4781L163.329 28.4529L163.307 28.428L157.286 33.696ZM161.702 47.04L169.68 46.4417L169.674 46.3674L169.667 46.2933L161.702 47.04ZM132.998 73.344L131.567 81.215L132.277 81.344H132.998V73.344ZM147.878 44.64L140.602 47.9661L140.641 48.0511L140.682 48.1352L147.878 44.64ZM141.062 41.28V33.28H139.045L137.269 34.2362L141.062 41.28ZM129.83 47.328L126.037 40.2842L121.83 42.5496V47.328H129.83ZM142.861 76.0963L132.013 76.0003L131.871 91.9997L142.719 92.0957L142.861 76.0963ZM131.942 76C128.756 76 127.566 75.1251 126.985 74.4695L115.011 85.0825C119.422 90.0589 125.528 92 131.942 92V76ZM127.053 74.547C125.941 73.2602 125.35 71.783 125.35 69.696H109.35C109.35 75.417 111.191 80.6598 114.944 85.005L127.053 74.547ZM125.35 69.696V11.808H109.35V69.696H125.35ZM117.35 19.808H129.83V3.808H117.35V19.808ZM121.83 11.808V36H137.83V11.808H121.83ZM133.2 43.2554L148.08 36.3434L141.34 21.8326L126.46 28.7446L133.2 43.2554ZM144.71 37.088C149.046 37.088 150.625 38.2323 151.266 38.964L163.307 28.428C158.571 23.0157 151.766 21.088 144.71 21.088V37.088ZM151.222 38.9139C151.985 39.8004 153.219 42.2578 153.737 47.7867L169.667 46.2933C169.034 39.5342 167.323 33.0956 163.35 28.4781L151.222 38.9139ZM153.725 47.6383C153.896 49.9305 153.99 52.8842 153.99 56.544H169.99C169.99 52.6518 169.892 49.2695 169.68 46.4417L153.725 47.6383ZM153.99 56.544C153.99 65.045 152.465 69.9967 150.627 72.6341C149.155 74.7463 147.008 76.096 142.79 76.096V92.096C151.372 92.096 158.826 88.8537 163.754 81.7819C168.316 75.2353 169.99 66.411 169.99 56.544H153.99ZM132.998 81.344H139.142V65.344H132.998V81.344ZM139.142 81.344C145.203 81.344 150.454 78.6472 153.726 73.3455C156.606 68.679 157.51 62.7071 157.51 56.544H141.51C141.51 61.5809 140.686 64.009 140.11 64.9425C139.894 65.2923 139.8 65.2966 139.876 65.2551C139.935 65.2232 139.773 65.344 139.142 65.344V81.344ZM157.51 56.544C157.51 50.8108 157.036 45.1846 155.074 41.1448L140.682 48.1352C140.672 48.1154 140.748 48.2695 140.855 48.678C140.96 49.0771 141.074 49.6354 141.176 50.3826C141.383 51.8915 141.51 53.9212 141.51 56.544H157.51ZM155.154 41.3139C152.286 35.0406 146.158 33.28 141.062 33.28V49.28C141.527 49.28 141.811 49.3177 141.949 49.3445C142.085 49.3708 142.035 49.3775 141.869 49.2955C141.691 49.2077 141.431 49.0427 141.165 48.7722C140.898 48.4995 140.714 48.21 140.602 47.9661L155.154 41.3139ZM137.269 34.2362L126.037 40.2842L133.623 54.3718L144.855 48.3238L137.269 34.2362ZM121.83 47.328V68.928H137.83V47.328H121.83ZM121.83 68.928C121.83 71.2124 122.29 74.0622 124.122 76.6153C126.079 79.3438 128.873 80.7251 131.567 81.215L134.429 65.473C135.011 65.5789 136.221 66.0322 137.122 67.2887C137.898 68.3698 137.83 69.2036 137.83 68.928H121.83ZM225.597 49.536H217.597V49.5879L217.598 49.6399L225.597 49.536ZM225.693 56.928L233.681 57.3657L233.696 57.0951L233.692 56.8241L225.693 56.928ZM223.965 68.736L216.261 66.579L223.965 68.736ZM218.685 77.472L224.342 83.1289L218.685 77.472ZM179.517 80.16L174.845 86.6544L174.883 86.6817L174.922 86.7085L179.517 80.16ZM174.045 15.648V7.648H166.045V15.648H174.045ZM218.685 22.176L224.342 16.5191V16.5191L218.685 22.176ZM224.925 35.04L232.863 34.0477L232.862 34.0354L224.925 35.04ZM209.373 67.872L203.205 62.7769L203.193 62.7915L203.181 62.8061L209.373 67.872ZM211.677 61.824L203.761 60.6656L203.749 60.7485L203.739 60.8317L211.677 61.824ZM211.677 37.728L203.742 38.7453L203.757 38.8607L203.775 38.9757L211.677 37.728ZM209.373 31.776L203.181 36.8419L203.193 36.8565L203.205 36.871L209.373 31.776ZM187.389 27.552V19.552H179.389V27.552H187.389ZM189.981 70.656L186.096 77.6493L189.981 70.656ZM217.598 49.6399L217.694 57.0319L233.692 56.8241L233.596 49.4321L217.598 49.6399ZM217.705 56.4903C217.469 60.7963 216.951 64.1156 216.261 66.579L231.669 70.893C232.771 66.9564 233.405 62.4037 233.681 57.3657L217.705 56.4903ZM216.261 66.579C215.777 68.3068 214.796 70.0469 213.028 71.8151L224.342 83.1289C227.822 79.6491 230.36 75.5652 231.669 70.893L216.261 66.579ZM213.028 71.8151C210.644 74.1997 206.643 76 199.677 76V92C209.351 92 218.022 89.4483 224.342 83.1289L213.028 71.8151ZM199.677 76C195.088 76 191.496 75.6967 188.79 75.1813C186.007 74.6512 184.646 73.9859 184.112 73.6115L174.922 86.7085C178.036 88.8941 181.859 90.1488 185.796 90.8987C189.81 91.6633 194.474 92 199.677 92V76ZM184.188 73.6656C183.535 73.196 182.045 71.6243 182.045 66.048H166.045C166.045 74.0397 168.202 81.876 174.845 86.6544L184.188 73.6656ZM182.045 66.048V15.648H166.045V66.048H182.045ZM174.045 23.648H200.637V7.648H174.045V23.648ZM200.637 23.648C206.751 23.648 210.528 25.3331 213.028 27.8329L224.342 16.5191C218.138 10.3149 209.883 7.648 200.637 7.648V23.648ZM213.028 27.8328C215.261 30.0661 216.565 32.7041 216.988 36.0446L232.862 34.0354C232.004 27.2639 229.149 21.3259 224.342 16.5191L213.028 27.8328ZM216.987 36.0323C217.375 39.1404 217.597 43.5967 217.597 49.536H233.597C233.597 43.3153 233.371 38.1076 232.863 34.0477L216.987 36.0323ZM215.541 72.967C218.009 69.9794 219.171 66.3701 219.615 62.8163L203.739 60.8317C203.543 62.3979 203.169 62.8206 203.205 62.7769L215.541 72.967ZM219.593 62.9824C220.065 59.7526 220.253 55.204 220.253 49.632H204.253C204.253 55.068 204.057 58.6474 203.761 60.6656L219.593 62.9824ZM220.253 49.632C220.253 44.0918 220.069 39.5811 219.579 36.4803L203.775 38.9757C204.053 40.7389 204.253 44.1642 204.253 49.632H220.253ZM219.612 36.7107C219.16 33.1822 217.98 29.634 215.541 26.6809L203.205 36.871C203.208 36.8745 203.291 36.9737 203.4 37.2559C203.513 37.5481 203.649 38.0247 203.742 38.7453L219.612 36.7107ZM215.565 26.7101C211.439 21.668 205.619 19.552 199.389 19.552V35.552C201.863 35.552 202.699 36.252 203.181 36.8419L215.565 26.7101ZM199.389 19.552H187.389V35.552H199.389V19.552ZM179.389 27.552V65.376H195.389V27.552H179.389ZM179.389 65.376C179.389 69.8479 181.064 74.854 186.096 77.6493L193.866 63.6627C194.103 63.7945 194.377 63.9923 194.638 64.2671C194.901 64.5423 195.091 64.8313 195.218 65.0906C195.464 65.5902 195.389 65.7931 195.389 65.376H179.389ZM186.096 77.6493C189.78 79.6958 194.712 80.096 199.197 80.096V64.096C197.246 64.096 195.813 63.9877 194.816 63.8319C193.739 63.6637 193.574 63.5005 193.866 63.6627L186.096 77.6493ZM199.197 80.096C205.467 80.096 211.393 78.036 215.565 72.9379L203.181 62.8061C202.744 63.34 201.887 64.096 199.197 64.096V80.096ZM248.558 9.696L242.71 15.1545L242.804 15.2554L242.901 15.3529L248.558 9.696ZM248.462 21.408L254.119 27.0649L254.119 27.0648L248.462 21.408ZM236.75 21.312L230.902 26.7705L230.996 26.8713L231.093 26.9688L236.75 21.312ZM236.75 9.696L231.093 4.03914L236.75 9.696ZM248.846 84V92H256.846V84H248.846ZM236.366 84H228.366V92H236.366V84ZM236.366 31.2V23.2H228.366V31.2H236.366ZM248.846 31.2H256.846V23.2H248.846V31.2ZM242.702 16.256C243.248 16.256 243.672 16.278 243.99 16.3088C244.312 16.34 244.475 16.3754 244.512 16.3846C244.556 16.3954 244.382 16.3586 244.078 16.2053C243.77 16.0494 243.249 15.732 242.71 15.1545L254.407 4.23745C252.474 2.16732 250.074 1.27557 248.332 0.847423C246.505 0.398054 244.565 0.255997 242.702 0.255997V16.256ZM242.901 15.3529C242.338 14.7894 242.045 14.2628 241.911 13.9802C241.778 13.6984 241.753 13.5504 241.769 13.6215C241.783 13.6846 241.82 13.8711 241.851 14.2136C241.881 14.5514 241.902 14.9928 241.902 15.552H257.902C257.902 13.7141 257.771 11.8193 257.363 10.0425C256.982 8.3784 256.175 5.99917 254.215 4.03914L242.901 15.3529ZM241.902 15.552C241.902 16.0762 241.881 16.4853 241.85 16.7934C241.82 17.1055 241.785 17.2684 241.774 17.3137C241.761 17.3638 241.791 17.2196 241.921 16.9558C242.054 16.6874 242.322 16.235 242.805 15.7512L254.119 27.0648C256.014 25.1703 256.879 22.8917 257.311 21.1343C257.758 19.3174 257.902 17.3993 257.902 15.552H241.902ZM242.805 15.7511C243.369 15.1877 243.895 14.8945 244.178 14.7611C244.46 14.6282 244.608 14.6024 244.537 14.6187C244.474 14.6332 244.287 14.6695 243.945 14.7004C243.607 14.7309 243.165 14.752 242.606 14.752V30.752C244.444 30.752 246.339 30.6211 248.116 30.2133C249.78 29.8314 252.159 29.0249 254.119 27.0649L242.805 15.7511ZM242.606 14.752C242.082 14.752 241.673 14.7304 241.365 14.7002C241.053 14.6696 240.89 14.6346 240.844 14.6234C240.794 14.6111 240.939 14.6404 241.202 14.7709C241.471 14.9036 241.923 15.1713 242.407 15.6551L231.093 26.9688C232.988 28.8634 235.266 29.7284 237.024 30.1606C238.841 30.6073 240.759 30.752 242.606 30.752V14.752ZM242.599 15.8534C243.067 16.3557 243.313 16.8093 243.426 17.0535C243.538 17.2963 243.557 17.4152 243.539 17.3385C243.523 17.2677 243.487 17.081 243.457 16.749C243.427 16.4211 243.406 15.9944 243.406 15.456H227.406C227.406 17.2769 227.539 19.1505 227.945 20.9175C228.332 22.6033 229.115 24.8565 230.902 26.7705L242.599 15.8534ZM243.406 15.456C243.406 14.9171 243.427 14.4944 243.456 14.1737C243.486 13.8484 243.521 13.6766 243.533 13.6258C243.546 13.5678 243.517 13.7221 243.382 14.0058C243.246 14.2915 242.955 14.8049 242.407 15.3529L231.093 4.03914C229.156 5.97597 228.341 8.31869 227.951 9.99016C227.538 11.7606 227.406 13.6407 227.406 15.456H243.406ZM242.407 15.3529C241.908 15.8514 241.444 16.1221 241.177 16.2524C240.915 16.3808 240.776 16.4069 240.839 16.3917C240.897 16.3778 241.074 16.341 241.404 16.3093C241.729 16.278 242.157 16.256 242.702 16.256V0.255997C240.833 0.255997 238.9 0.39916 237.077 0.840325C235.325 1.26431 233.011 2.12149 231.093 4.03914L242.407 15.3529ZM248.846 76H236.366V92H248.846V76ZM244.366 84V31.2H228.366V84H244.366ZM236.366 39.2H248.846V23.2H236.366V39.2ZM240.846 31.2V84H256.846V31.2H240.846ZM305.332 84V92H313.332V84H305.332ZM292.852 84H284.852V92H292.852V84ZM290.932 42.528L285.58 48.4744L290.932 42.528ZM285.556 40.8V32.8H283.948L282.465 33.421L285.556 40.8ZM274.324 45.504L271.233 38.125L266.324 40.1812V45.504H274.324ZM274.324 84V92H282.324V84H274.324ZM261.844 84H253.844V92H261.844V84ZM261.844 29.184V21.184H253.844V29.184H261.844ZM271.156 29.184L278.475 25.9549L276.37 21.184H271.156V29.184ZM274.036 35.712L266.716 38.9411L270.003 46.3912L277.394 42.973L274.036 35.712ZM289.396 28.608V20.608H287.635L286.037 21.347L289.396 28.608ZM300.532 33.408L294.818 39.0074L294.875 39.0651L294.932 39.1217L300.532 33.408ZM305.332 76H292.852V92H305.332V76ZM300.852 84V48.96H284.852V84H300.852ZM300.852 48.96C300.852 45.2746 300.203 40.1094 296.283 36.5816L285.58 48.4744C284.846 47.8135 284.683 47.2118 284.706 47.2883C284.715 47.3192 284.754 47.4644 284.79 47.7566C284.825 48.0467 284.852 48.4425 284.852 48.96H300.852ZM296.283 36.5816C293.098 33.7148 289.158 32.8 285.556 32.8V48.8C286.056 48.8 286.229 48.8641 286.18 48.8482C286.15 48.8388 286.069 48.8093 285.954 48.7446C285.837 48.6789 285.707 48.5891 285.58 48.4744L296.283 36.5816ZM282.465 33.421L271.233 38.125L277.414 52.883L288.646 48.179L282.465 33.421ZM266.324 45.504V84H282.324V45.504H266.324ZM274.324 76H261.844V92H274.324V76ZM269.844 84V29.184H253.844V84H269.844ZM261.844 37.184H271.156V21.184H261.844V37.184ZM263.836 32.4131L266.716 38.9411L281.355 32.4829L278.475 25.9549L263.836 32.4131ZM277.394 42.973L292.754 35.869L286.037 21.347L270.677 28.451L277.394 42.973ZM289.396 36.608C291.428 36.608 293.111 37.2658 294.818 39.0074L306.245 27.8086C301.68 23.1502 295.939 20.608 289.396 20.608V36.608ZM294.932 39.1217C296.112 40.2776 297.332 42.5114 297.332 47.232H313.332C313.332 39.7926 311.352 32.8104 306.131 27.6943L294.932 39.1217ZM297.332 47.232V84H313.332V47.232H297.332ZM345.387 43.392L338.343 47.1848L338.38 47.2541L338.419 47.3226L345.387 43.392ZM345.771 69.024L338.418 65.8726L338.4 65.9147L338.382 65.957L345.771 69.024ZM353.259 80.16L347.907 74.2136L347.882 74.236L347.858 74.2586L353.259 80.16ZM318.315 77.28L325.189 73.1881L325.167 73.1499L325.143 73.112L318.315 77.28ZM318.315 36.48L325.094 40.7281L325.105 40.7095L325.117 40.6908L318.315 36.48ZM354.795 35.52L348.291 40.1782L348.327 40.2282L348.363 40.2776L354.795 35.52ZM355.499 59.232V54.24H339.499V59.232H355.499ZM355.499 54.24C355.499 48.9252 354.746 43.7001 352.355 39.4614L338.419 47.3226C338.844 48.0759 339.499 50.0828 339.499 54.24H355.499ZM352.431 39.5992C349.032 33.2873 342.42 31.648 336.843 31.648V47.648C338.325 47.648 338.939 47.8708 339.032 47.9114C339.052 47.9202 338.937 47.8717 338.768 47.7207C338.592 47.5637 338.444 47.3723 338.343 47.1848L352.431 39.5992ZM336.843 31.648C331.344 31.648 326.073 33.624 322.502 38.4278C319.263 42.7866 318.283 48.362 318.283 53.856H334.283C334.283 49.878 335.063 48.3494 335.344 47.9722C335.425 47.8631 335.45 47.8565 335.497 47.8355C335.589 47.794 335.972 47.648 336.843 47.648V31.648ZM318.283 53.856V58.848H334.283V53.856H318.283ZM318.283 58.848C318.283 64.6111 319.235 70.3535 322.344 74.8475C325.822 79.875 331.117 82.112 336.843 82.112V66.112C336.047 66.112 335.736 65.9705 335.695 65.9509C335.693 65.95 335.639 65.943 335.502 65.7445C335.091 65.1505 334.283 63.2609 334.283 58.848H318.283ZM336.843 82.112C340.065 82.112 343.418 81.5151 346.444 79.7905C349.588 77.9986 351.828 75.2996 353.16 72.091L338.382 65.957C338.325 66.0938 338.305 66.0926 338.36 66.028C338.42 65.9583 338.489 65.9084 338.522 65.8895C338.572 65.8609 338.165 66.112 336.843 66.112V82.112ZM353.124 72.1754C354.814 68.2324 355.499 63.8326 355.499 59.232H339.499C339.499 62.3114 339.032 64.4396 338.418 65.8726L353.124 72.1754ZM351.979 56.352C351.979 67.8694 349.658 72.6376 347.907 74.2136L358.611 86.1064C365.82 79.6184 367.979 68.5146 367.979 56.352H351.979ZM347.858 74.2586C346.057 75.9067 342.813 77.344 336.843 77.344V93.344C345.209 93.344 352.909 91.3253 358.66 86.0614L347.858 74.2586ZM336.843 77.344C329.085 77.344 326.343 75.1257 325.189 73.1881L311.441 81.3719C316.687 90.1863 326.296 93.344 336.843 93.344V77.344ZM325.143 73.112C323.218 69.9581 321.803 64.6631 321.803 56.352H305.803C305.803 66.0889 307.396 74.7459 311.486 81.448L325.143 73.112ZM321.803 56.352C321.803 48.7165 323.184 43.775 325.094 40.7281L311.536 32.2319C307.429 38.785 305.803 47.0915 305.803 56.352H321.803ZM325.117 40.6908C326.456 38.5284 329.275 36.416 336.459 36.416V20.416C326.107 20.416 316.83 23.6796 311.513 32.2692L325.117 40.6908ZM336.459 36.416C344.096 36.416 347.058 38.4571 348.291 40.1782L361.299 30.8618C355.748 23.1109 346.485 20.416 336.459 20.416V36.416ZM348.363 40.2776C350.359 42.9761 351.979 47.9177 351.979 56.352H367.979C367.979 46.3543 366.142 37.4079 361.227 30.7624L348.363 40.2776Z" fill="#263238"/>
</svg>
