<svg width="155" height="155" viewBox="0 0 155 155" fill="none" xmlns="http://www.w3.org/2000/svg">
<mask id="mask0" mask-type="alpha" maskUnits="userSpaceOnUse" x="28" y="33" width="87" height="82">
<path fill-rule="evenodd" clip-rule="evenodd" d="M67 37.1233C73 32.311 74 45.311 81.5 53.6402L71.5 37.1233L84.5633 33.9339C88.068 33.5951 91.5227 35.167 93.5648 38.0686L112.643 65.1776C114.669 68.0571 115.025 71.858 113.535 75.1011L99.6177 105.399C98.1394 108.618 95.0401 110.847 91.5083 111.188L58.5129 114.377C55.0082 114.716 51.5536 113.144 49.5114 110.243L30.4334 83.1338C28.4069 80.2543 28.0516 76.4534 29.5412 73.2103L67 37.1233ZM78.0096 48.811C79.9238 51.5309 83.0005 53.4161 86.2862 53.0985L81.5 53.6402L78.0096 48.811ZM93.9106 71.9931L81.5 53.6402L71.5 37.1233C91 70.6233 87.3106 91.991 84 92.311L62.1015 94.6995L49.1656 76.3182L46.0945 71.9543C47.9943 74.6538 48.3217 78.1556 46.9253 81.1956L49.1656 76.3182L62.1015 94.6995L56.7901 95.2129C60.0757 94.8953 63.2584 96.3434 65.1726 99.0633L62.1015 94.6995L84 92.311L82.2336 97.4142C83.6195 94.3971 86.4749 92.3435 89.7856 92.0235L84 92.311L93.9106 71.9931ZM93.9106 71.9931L96.9818 76.357C95.082 73.6575 94.7546 70.1558 96.151 67.1159L93.9106 71.9931Z" fill="white"/>
</mask>
<g mask="url(#mask0)">
<g filter="url(#filter0_d)">
<path d="M81.2489 53.811L61.2521 95.3126" stroke="#869FB2"/>
</g>
<path fill-rule="evenodd" clip-rule="evenodd" d="M72 37.1402L81.5 53.6402L94 72.1402L89 83.1402L111.749 101.279L115.5 77.311L114.5 67.311L99 45.6402L72 37.1402Z" fill="#27DEBF"/>
<path fill-rule="evenodd" clip-rule="evenodd" d="M48.9129 76.6872L62.2888 94.5188L39.9469 97.0245L48.9129 76.6872Z" fill="#37474F"/>
<g filter="url(#filter1_i)">
<path fill-rule="evenodd" clip-rule="evenodd" d="M93.4999 72.311L111.027 96.671L108.413 131.553L54 116.811L40 96.671L62.0911 94.6513L84.4999 92.811L93.4999 72.311Z" fill="#1FB299"/>
</g>
</g>
<defs>
<filter id="filter0_d" x="56.5496" y="53.5885" width="29.4019" height="49.9466" filterUnits="userSpaceOnUse" color-interpolation-filters="sRGB">
<feFlood flood-opacity="0" result="BackgroundImageFix"/>
<feColorMatrix in="SourceAlpha" type="matrix" values="0 0 0 0 0 0 0 0 0 0 0 0 0 0 0 0 0 0 127 0"/>
<feOffset dy="4"/>
<feGaussianBlur stdDeviation="2"/>
<feColorMatrix type="matrix" values="0 0 0 0 0 0 0 0 0 0 0 0 0 0 0 0 0 0 0.25 0"/>
<feBlend mode="normal" in2="BackgroundImageFix" result="effect1_dropShadow"/>
<feBlend mode="normal" in="SourceGraphic" in2="effect1_dropShadow" result="shape"/>
</filter>
<filter id="filter1_i" x="31.7949" y="54.2291" width="96.5463" height="85.8848" filterUnits="userSpaceOnUse" color-interpolation-filters="sRGB">
<feFlood flood-opacity="0" result="BackgroundImageFix"/>
<feBlend mode="normal" in="SourceGraphic" in2="BackgroundImageFix" result="shape"/>
<feColorMatrix in="SourceAlpha" type="matrix" values="0 0 0 0 0 0 0 0 0 0 0 0 0 0 0 0 0 0 127 0" result="hardAlpha"/>
<feOffset dx="-7" dy="-2"/>
<feGaussianBlur stdDeviation="1.5"/>
<feComposite in2="hardAlpha" operator="arithmetic" k2="-1" k3="1"/>
<feColorMatrix type="matrix" values="0 0 0 0 0 0 0 0 0 0 0 0 0 0 0 0 0 0 0.17346 0"/>
<feBlend mode="normal" in2="shape" result="effect1_innerShadow"/>
</filter>
</defs>
</svg>
